<svg xmlns="http://www.w3.org/2000/svg" width="24" height="24" viewBox="0 0 24 24" fill="none">
  <path d="M0 0H24V24H0V0Z" fill="#2D96D3"/>
  <path d="M13.8873 9.714C13.8873 9.294 13.7313 8.934 13.4193 8.634C13.1193 8.322 12.6453 8.166 11.9973 8.166C11.3493 8.166 10.8333 8.358 10.4493 8.742C10.0773 9.114 9.89126 9.606 9.89126 10.218V11.838H10.2153C10.4193 11.418 10.7493 11.082 11.2053 10.83C11.6613 10.566 12.1773 10.434 12.7533 10.434C13.2693 10.434 13.7553 10.53 14.2113 10.722C14.6673 10.902 15.0633 11.166 15.3993 11.514C15.7353 11.85 15.9993 12.264 16.1913 12.756C16.3833 13.248 16.4793 13.806 16.4793 14.43V14.646C16.4793 15.282 16.3713 15.87 16.1553 16.41C15.9513 16.938 15.6513 17.394 15.2553 17.778C14.8713 18.162 14.4033 18.462 13.8513 18.678C13.2993 18.894 12.6813 19.002 11.9973 19.002C11.3733 19.002 10.7853 18.9 10.2333 18.696C9.69326 18.492 9.21926 18.21 8.81126 17.85C8.41526 17.478 8.09726 17.04 7.85726 16.536C7.62926 16.02 7.51526 15.456 7.51526 14.844V10.254C7.51526 9.594 7.63526 8.994 7.87526 8.454C8.11526 7.914 8.43926 7.458 8.84726 7.086C9.25526 6.702 9.72326 6.408 10.2513 6.204C10.7913 6 11.3613 5.898 11.9613 5.898C12.5613 5.898 13.1193 5.988 13.6353 6.168C14.1633 6.336 14.6193 6.588 15.0033 6.924C15.3993 7.248 15.7053 7.65 15.9213 8.13C16.1493 8.598 16.2633 9.126 16.2633 9.714H13.8873ZM11.9973 16.734C12.6093 16.734 13.1133 16.554 13.5093 16.194C13.9053 15.822 14.1033 15.33 14.1033 14.718C14.1033 14.106 13.9053 13.62 13.5093 13.26C13.1133 12.888 12.6093 12.702 11.9973 12.702C11.3853 12.702 10.8813 12.888 10.4853 13.26C10.0893 13.62 9.89126 14.106 9.89126 14.718C9.89126 15.33 10.0893 15.822 10.4853 16.194C10.8813 16.554 11.3853 16.734 11.9973 16.734Z" fill="#EAE9E6"/>
</svg>