<svg preserveAspectRatio="none" width="100%" height="100%" overflow="visible" style="display: block;" viewBox="0 0 137.217 48" fill="none" xmlns="http://www.w3.org/2000/svg">
<g id="Flag">
<path id="path1" d="M29.4854 0.023947C19.7781 -0.29052 15.194 2.60607 14.6617 2.96739C14.6235 2.99327 14.5991 3.02658 14.5807 3.06878L7.95652 18.2344L4.54891 30.2007C4.49622 30.3857 4.65663 30.562 4.84647 30.5304C13.6481 29.069 20.5714 30.4021 34.9565 34.3757C49.5652 38.4111 61.9372 43.7471 84.7826 43.7471C105.962 43.7471 132.937 19.0235 136.759 15.4168C136.931 15.2548 136.797 14.9862 136.561 14.9893C130.87 15.0648 125.788 15.0065 124.33 14.9862C124.137 14.9836 124.016 14.7791 124.105 14.6072L129.709 3.69854C129.808 3.50526 129.498 3.21119 129.313 3.32558C123.738 6.77771 92.7088 24.0444 61.9372 9.2894C47.6847 2.45546 37.0355 0.268533 29.4854 0.023947ZM23.7473 6.78465C24.8861 6.8453 26.1205 8.21976 26.2464 11.7335C26.2266 12.6365 25.7763 13.6016 25.9198 13.9759C25.9636 14.1232 29.6388 15.481 29.6388 15.481C29.6388 15.481 30.9461 12.4381 31.7512 11.0487C33.2572 7.27459 36.5858 9.40701 35.6133 11.7427C34.9681 15.3926 32.6291 22.295 32.1272 23.948C30.9995 27.1624 26.9219 27.6848 28.3207 23.3336C28.6872 21.656 29.0457 19.6284 29.0457 19.6284L24.5931 17.9215C24.5931 17.9215 23.7281 19.6489 22.8872 21.241C21.4685 24.1243 16.5139 25.2567 19.419 18.3169C20.8176 13.9657 21.4833 10.5984 21.83 8.63825C22.0339 7.48493 22.8615 6.73747 23.7473 6.78465ZM44.6647 10.9581C44.7277 10.9604 44.7892 10.9654 44.8497 10.9718C45.2671 11.0063 45.8346 11.855 46.2687 12.6705C47.6899 18.0412 45.143 27.9191 44.6928 28.5825C43.1427 31.0864 40.4228 30.6129 41.4558 27.9079C41.9385 26.2647 42.4555 24.7709 42.4555 24.7709L38.9348 24.3775C36.1683 29.752 33.681 27.5018 35.1145 25.18C36.6479 22.4601 39.9146 16.5055 41.4477 13.5031C42.5101 11.3881 43.7204 10.9232 44.6647 10.9581ZM56.1359 15.132C58.9883 15.0561 59.8009 17.7047 59.3702 18.9181C59.124 19.6319 58.1548 20.4426 56.7733 18.6771C54.4711 17.5238 53.0272 22.2373 52.3711 24.6109C52.0925 26.0223 51.8639 28.6467 53.1466 29.6805C53.9031 30.2975 54.8395 30.1844 55.5301 30.2196C56.0724 30.2877 57.1587 32.4009 53.9868 33.3546C53.4441 33.2863 50.65 33.2777 49.498 30.5829C48.2304 27.7879 49.0338 23.6872 49.0338 23.6872C49.0338 23.6872 50.7056 15.2198 55.5382 15.185C55.7467 15.1544 55.9457 15.137 56.1359 15.132ZM113.152 15.3913C113.541 15.3933 113.904 15.455 114.243 15.5773C115.036 16.0645 115.548 17.4035 115.334 18.5564C115.087 19.5587 114.675 20.3769 114.675 20.3769C116.046 20.5151 117.05 21.8833 117.311 23.6744C117.572 25.4656 115.884 27.1513 112.747 28.1948C111.69 28.4925 110.567 28.4893 110.517 28.1214C110.483 27.4022 107.819 18.8341 107.819 18.8341C107.736 18.3154 107.455 17.7466 108.842 16.9652C110.576 15.9172 111.985 15.3852 113.152 15.3913ZM43.8144 15.4922C43.7619 15.4828 43.7023 15.4967 43.6345 15.537L40.284 20.411L43.7548 21.0036C43.7548 21.0036 44.6016 15.6324 43.8144 15.4922ZM63.6639 17.7391C64.6844 17.7231 65.9087 19.0636 65.7407 20.7121C65.8074 22.9788 65.1384 25.9713 65.1384 25.9713C65.1384 25.9713 65.4651 25.2111 68.2785 22.8373C71.0923 20.4638 71.7478 21.4754 71.3886 22.93C71.0455 24.3189 67.447 27.8972 67.447 27.8972C67.9544 28.0973 68.4793 29.6377 68.4793 29.6377C69.2822 31.7411 69.7088 33.397 69.8239 34.6218C69.7769 38.1949 66.552 37.1593 66.3057 35.3387C66.0754 33.4521 65.0747 29.0482 65.0747 29.0482L63.9293 29.1771C63.9293 29.1771 63.2266 31.4577 62.5888 32.3494C59.9561 36.2454 57.566 34.9313 58.743 32.7014C58.8902 32.3873 60.1328 30.1748 60.6394 28.9682C62.7642 24.0285 61.6989 21.2955 62.5486 18.7006C62.7783 18.0344 63.2 17.7464 63.6639 17.7391ZM112.316 17.7391C111.602 17.7767 110.665 18.1908 109.801 18.4891L110.959 21.2013C110.959 21.2013 113.766 20.0729 113.435 18.5671C113.29 17.9084 112.87 17.7099 112.316 17.7391ZM104.014 18.7826C104.621 18.7783 105.364 19.4806 105.816 20.7177C106.485 23.1685 107.183 27.1275 106.833 28.5352C106.499 29.8755 106.149 31.5685 104.412 31.9825C103.961 32.0819 100.202 32.6231 98.8798 28.5102C97.6072 24.1963 97.206 22.9544 97.0547 21.562C96.9034 20.1696 98.3231 19.3184 99.1595 20.8135C99.7947 21.9725 100.533 27.0062 101.57 29.1226C102.139 29.9796 103.308 30.1341 103.86 29.3478C104.511 28.159 104.041 25.1894 103.639 22.8067C103.354 21.6654 103.026 20.793 103.042 20.1557C103.151 19.2169 103.542 18.786 104.014 18.7826ZM89.8721 21.3918C90.4271 21.4166 91.0383 22.163 91.366 24.1819C92.2295 26.9648 92.01 32.3458 92.4243 32.8441C92.8385 33.3424 95.9221 32.6471 96.7571 32.3662C97.5919 32.0852 99.1307 32.4541 98.7829 33.2904C98.5015 34.1437 97.7054 34.2246 97.5397 34.3247C97.3738 34.4246 90.4035 36.491 90.1447 35.1155C89.8859 33.7397 89.8696 33.1066 89.6087 30.7638C89.3478 28.4206 88.7134 25.212 88.6957 23.2857C88.6864 22.2624 89.2432 21.3638 89.8721 21.3918ZM83.1455 22.1739C84.1263 22.1865 84.9978 22.7606 85.7334 23.7998C86.396 25.1211 86.0331 26.6084 84.1793 25.2666C84.0633 25.1648 83.3852 24.7734 82.7237 25.177C82.5583 25.278 82.2443 25.4125 81.9136 25.902C80.8062 27.5557 81.1385 30.5161 81.7515 32.0401C82.6794 34.2922 83.7877 34.9387 85.26 34.3854C86.7318 33.8318 86.7982 34.1359 87.0627 34.2045C87.3935 34.2903 88.2387 36.8806 84.6491 37.4613C81.0596 38.0417 78.9575 35.1261 78.7892 30.052C78.7044 26.6526 79.4641 24.4061 80.6714 23.2092C81.5539 22.4943 82.3827 22.1641 83.1455 22.1739ZM113.858 22.3405C112.692 22.3694 111.356 23.2923 111.356 23.2923C111.356 23.2923 112.151 26.6217 112.118 26.4711C112.101 26.2538 116.211 25.4351 115.334 23.2923C115.033 22.5558 114.469 22.3254 113.858 22.3405Z" fill="var(--fill-0, white)"/>
<path id="path10" d="M14.6802 1.81724C14.6802 1.81724 14.9506 1.50613 15.4617 1.57095C15.9728 1.63578 15.8467 2.22549 15.6542 2.60971C15.4617 2.99395 10.6129 12.936 7.10379 24.1504C3.59468 35.3648 3.86298 47.3478 3.86298 48H0.00256616C-0.0500515 46.8261 0.681303 35.5437 4.54471 24.1504C8.40814 12.7569 14.1682 2.21322 14.6802 1.81724Z" fill="var(--fill-0, white)"/>
</g>
</svg>
