<svg width="100%" height="100%" viewBox="12.13 12.13 31.19 31.19" fill="none" xmlns="http://www.w3.org/2000/svg">
<path fill-rule="evenodd" clip-rule="evenodd" d="M16.8953 16.4397L20.8835 17.6611C21.8398 17.0149 22.8949 16.5021 24.0193 16.1486L25.5526 12.2696C26.2404 12.176 26.9438 12.1275 27.6593 12.1275C28.3748 12.1275 29.0782 12.176 29.7677 12.2696L31.2993 16.1486C32.4236 16.5021 33.4787 17.0149 34.4351 17.6611L38.4233 16.4397C39.442 17.4099 40.329 18.5187 41.055 19.7332L38.976 23.3506C39.3883 24.4179 39.6534 25.5578 39.7487 26.7446L43.1911 29.1025C43.0647 30.537 42.7459 31.9161 42.2573 33.212L38.1288 33.8427C37.538 34.8527 36.8051 35.7675 35.9579 36.5627L36.2629 40.7259C35.0969 41.4986 33.8235 42.1188 32.467 42.5571L29.4004 39.7228C28.8322 39.8059 28.2501 39.8475 27.6593 39.8475C27.0685 39.8475 26.4881 39.8059 25.9181 39.7228L22.8516 42.5571C21.4968 42.1188 20.2217 41.4986 19.0574 40.7259L19.3606 36.5627C18.5134 35.7675 17.7806 34.8527 17.1898 33.8427L13.0612 33.212C12.5744 31.9161 12.2539 30.537 12.1274 29.1025L15.5699 26.7446C15.6652 25.5578 15.9302 24.4179 16.3426 23.3506L14.2653 19.7332C14.9912 18.5187 15.8765 17.4099 16.8953 16.4397ZM27.6593 34.65C31.4864 34.65 34.5893 31.5471 34.5893 27.72C34.5893 23.8929 31.4864 20.79 27.6593 20.79C23.8322 20.79 20.7293 23.8929 20.7293 27.72C20.7293 31.5471 23.8322 34.65 27.6593 34.65Z" fill="white"/>
</svg>
